<svg xmlns="http://www.w3.org/2000/svg" id="Layer_2" data-name="Layer 2" viewBox="0 0 240.5 39.8"><defs><style>.cls-3{fill:#fff}</style></defs><g id="Isolation_Mode" data-name="Isolation Mode"><path d="M132 11.5a8.5 8.5 0 0 0-5-1.4 8.6 8.6 0 0 0-8.7 8.4c0 4 3.1 7.8 7.7 7.8 1.2 0 3-.4 4.6-1.4l-.4 4.3a11.5 11.5 0 0 1-16.4-10.4A13 13 0 0 1 127 6c2.3 0 4 .5 5.5 1.2l-.5 4.3Zm25.2 6.1c0 7-5.9 12.7-12.9 12.7s-12-5.2-12-11.6c0-7 5.9-12.7 12.9-12.7s12 5.2 12 11.6Zm-20.5 1c0 4.3 3.4 7.7 7.8 7.7s8.2-3.9 8.2-8.6c0-4.2-3.3-7.6-7.7-7.6s-8.3 3.9-8.3 8.5Zm25.4-11.8h4.2l3.6 14.8 4.8-14.8h4.2l3.3 22.8h-4.4l-2-14.6-4.8 14.6h-3.1L164.2 15l-3.4 14.6h-4.6l5.9-22.8Zm26.2 14.9-.8 7.9H183l2.5-22.8h6c5 0 8 2.2 8 6.8 0 5.4-4.3 8.1-9.4 8.1h-1.8Zm1.2-10.8-.7 6.7h2c2.5 0 4.2-1.3 4.2-3.5 0-2-1-3.2-3.5-3.2h-2Zm12.1-4.1h6c4.4 0 7.4 2.4 7.4 6.8 0 4-2.4 6.4-5.5 7.5l6 8.5h-5l-5.7-8h-.3l-.9 8h-4.4l2.4-22.8Zm4 4.1-.7 6.7h1.7c2.4 0 4-1.4 4-3.8 0-1.7-1.1-2.9-3.3-2.9h-1.7Zm34.9 6.7c0 7-6 12.7-12.9 12.7s-12-5.2-12-11.6c0-7 5.8-12.7 12.8-12.7s12 5.2 12 11.6Zm-20.5 1c0 4.3 3.3 7.7 7.7 7.7s8.3-3.9 8.3-8.6c0-4.2-3.3-7.6-7.7-7.6S220 14 220 18.6Z" class="cls-3"/><path d="M132 11.5a8.5 8.5 0 0 0-5-1.4 8.6 8.6 0 0 0-8.7 8.4c0 4 3.1 7.8 7.7 7.8 1.2 0 3-.4 4.6-1.4l-.4 4.3a11.5 11.5 0 0 1-16.4-10.4A13 13 0 0 1 127 6c2.3 0 4 .5 5.5 1.2l-.5 4.3Zm25.2 6.1c0 7-5.9 12.7-12.9 12.7s-12-5.2-12-11.6c0-7 5.9-12.7 12.9-12.7s12 5.2 12 11.6Zm-20.5 1c0 4.3 3.4 7.7 7.8 7.7s8.2-3.9 8.2-8.6c0-4.2-3.3-7.6-7.7-7.6s-8.3 3.9-8.3 8.5Zm25.4-11.8h4.2l3.6 14.8 4.8-14.8h4.2l3.3 22.8h-4.4l-2-14.6-4.8 14.6h-3.1L164.2 15l-3.4 14.6h-4.6l5.9-22.8Zm26.2 14.9-.8 7.9H183l2.5-22.8h6c5 0 8 2.2 8 6.8 0 5.4-4.3 8.1-9.4 8.1h-1.8Zm1.2-10.8-.7 6.7h2c2.5 0 4.2-1.3 4.2-3.5 0-2-1-3.2-3.5-3.2h-2Zm12.1-4.1h6c4.4 0 7.4 2.4 7.4 6.8 0 4-2.4 6.4-5.5 7.5l6 8.5h-5l-5.7-8h-.3l-.9 8h-4.4l2.4-22.8Zm4 4.1-.7 6.7h1.7c2.4 0 4-1.4 4-3.8 0-1.7-1.1-2.9-3.3-2.9h-1.7Zm34.9 6.7c0 7-6 12.7-12.9 12.7s-12-5.2-12-11.6c0-7 5.8-12.7 12.8-12.7s12 5.2 12 11.6Zm-20.5 1c0 4.3 3.3 7.7 7.7 7.7s8.3-3.9 8.3-8.6c0-4.2-3.3-7.6-7.7-7.6S220 14 220 18.6Z" class="cls-3"/><path d="M9.6 0 7.7 17.3c-.3 4-1.5 5.7-3.4 5.7a6 6 0 0 1-3.4-1.2L0 30c1.4.7 3 1 5.6 1 7.2 0 10-4.2 10.7-10.3L18.4 0H9.6Zm28 7-.4 3.5a9.2 9.2 0 0 0-8-4.3c-6.2 0-11.6 6-11.6 13.8 0 6.5 4.2 11.1 10 11.1 3.4 0 6.4-1.5 8.4-3.9l-.3 3.1h7.6L45.9 7h-8.2Zm-6.5 17c-2.6 0-4.8-2-4.8-5 0-3.2 2.5-5.7 5.5-5.7a5 5 0 0 1 4.9 5c0 3.2-2.7 5.7-5.6 5.7ZM65 7l-.3 3.2a9.7 9.7 0 0 0-7.7-4c-5.7 0-11.2 4.8-11.2 12.3 0 6.6 5 10.6 10 10.6 2.5 0 4.9-1.1 6.8-2.8v1c-.5 4.3-2.8 5.5-6.8 5.5-2.3 0-4.6-.3-7.3-1l-.8 7c2.5.6 5.1 1 8.4 1 9.7 0 13.7-3.8 14.7-12.8l2-20h-7.7Zm-6.3 15.2a4.3 4.3 0 0 1-4.3-4.2c0-2.7 2.3-4.8 4.8-4.8 2.4 0 4.3 1.9 4.3 4.4s-2.2 4.6-4.8 4.6Zm38.6.2c.8-2.3 1.5-5.2 2.1-7.4L94 9.7l3.7.6A13.8 13.8 0 0 0 87.2 6c-8 0-14.4 5.8-14.4 13.3 0 6.9 5.6 12.2 13.4 12.2 7 0 12.9-4.5 14.1-10.8l-3 1.8Zm-5.3-4c0 3.3-2.5 5.9-5.6 5.9-2.8 0-5-2.2-5-5.3 0-3.3 2.5-6 5.6-6a5 5 0 0 1 4.5 3c.6 1 .5 2.2.5 2.3Z" style="fill:#00ceab"/><path d="m98 11.3 3.2 3.2-1.2 4.4c2.4-1.6 7.7-3.7 10.9-4.5a82 82 0 0 0-13-3.1Z" style="fill-rule:evenodd;fill:#00ceab"/></g></svg>